# xmcd
#
# Track frame offsets:
#	150
#	8569
#	25379
#	36841
#	58546
#	81843
#	96260
#	117497
#	134392
#	145068
#	161069
#	177901
#
# Disc length: 2743 seconds
#
# Revision: 0
# Processed by: cddbd v1.4PL0 Copyright (c) Steve Scherf et al.
# Submitted via: EasyCDDAExtractor 4.5.0.2
#
DISCID=9d0ab50c
DTITLE=Ferbean - Lik op stik
DYEAR=2003
DGENRE=Comedy
TTITLE0=Wy binne Ferbean
TTITLE1=Eigen Skuld
TTITLE2=De Geile Hoanne
TTITLE3=Super Sytske
TTITLE4=Alde Gjetsje
TTITLE5=Nei Lourdes
TTITLE6=Wille
TTITLE7=Fryske Diken
TTITLE8=Justerje
TTITLE9=Lik op Stik
TTITLE10=Kikkertproef
TTITLE11=We are the Best
EXTD=
EXTT0=
EXTT1=
EXTT2=
EXTT3=
EXTT4=
EXTT5=
EXTT6=
EXTT7=
EXTT8=
EXTT9=
EXTT10=
EXTT11=
PLAYORDER=
